HIERARCHY
ROOT Hips
{
  OFFSET 267.745 86.9975 -272.335
  CHANNELS 6 Xposition Yposition Zposition Zrotation Xrotation Yrotation
  JOINT LeftUpLeg
  {
    OFFSET 8.64259 1.95398 -2.38835
    CHANNELS 3 Zrotation Xrotation Yrotation
    JOINT LeftLeg
    {
      OFFSET 43.7702 0 0
      CHANNELS 3 Zrotation Xrotation Yrotation
      JOINT LeftFoot
      {
        OFFSET 40.6238 0 0
        CHANNELS 3 Zrotation Xrotation Yrotation
        JOINT LeftToeBase
        {
          OFFSET 12.7242 0 0
          CHANNELS 3 Zrotation Xrotation Yrotation
          End Site
          {
            OFFSET 0 0 0
          }
        }
      }
    }
  }
  JOINT RightUpLeg
  {
    OFFSET -8.2249 1.95398 -2.59336
    CHANNELS 3 Zrotation Xrotation Yrotation
    JOINT RightLeg
    {
      OFFSET 43.5653 0 0
      CHANNELS 3 Zrotation Xrotation Yrotation
      JOINT RightFoot
      {
        OFFSET 40.6238 0 0
        CHANNELS 3 Zrotation Xrotation Yrotation
        JOINT RightToeBase
        {
          OFFSET 12.7242 0 0
          CHANNELS 3 Zrotation Xrotation Yrotation
          End Site
          {
            OFFSET 0 0 0
          }
        }
      }
    }
  }
  JOINT Spine
  {
    OFFSET 0.165834 0.87714 6.61349
    CHANNELS 3 Zrotation Xrotation Yrotation
    JOINT Spine1
    {
      OFFSET 7.38963 1.71661e-005 0
      CHANNELS 3 Zrotation Xrotation Yrotation
      JOINT Spine2
      {
        OFFSET 11.9445 1.14441e-005 0
        CHANNELS 3 Zrotation Xrotation Yrotation
        JOINT Spine3
        {
          OFFSET 14.7254 4.19617e-005 0
          CHANNELS 3 Zrotation Xrotation Yrotation
          JOINT Spine4
          {
            OFFSET 10.9679 0 0
            CHANNELS 3 Zrotation Xrotation Yrotation
            JOINT RightShoulder
            {
              OFFSET 2.46616 -1.6653 3.69651
              CHANNELS 3 Zrotation Xrotation Yrotation
              JOINT RightArm
              {
                OFFSET 13.0012 0 0
                CHANNELS 3 Zrotation Xrotation Yrotation
                JOINT RightForeArm
                {
                  OFFSET 28.7848 1.52588e-005 0
                  CHANNELS 3 Zrotation Xrotation Yrotation
                  JOINT RightHand
                  {
                    OFFSET 26.5688 1.52588e-005 0
                    CHANNELS 3 Zrotation Xrotation Yrotation
                    End Site
                    {
                      OFFSET 0 0 0
                    }
                  }
                }
              }
            }
            JOINT LeftShoulder
            {
              OFFSET 2.38034 -1.29275 -3.7523
              CHANNELS 3 Zrotation Xrotation Yrotation
              JOINT LeftArm
              {
                OFFSET 16.3182 6.10352e-005 0
                CHANNELS 3 Zrotation Xrotation Yrotation
                JOINT LeftForeArm
                {
                  OFFSET 27.0901 0 0
                  CHANNELS 3 Zrotation Xrotation Yrotation
                  JOINT LeftHand
                  {
                    OFFSET 24.5451 1.52588e-005 0
                    CHANNELS 3 Zrotation Xrotation Yrotation
                    End Site
                    {
                      OFFSET 0 0 0
                    }
                  }
                }
              }
            }
            JOINT Neck
            {
              OFFSET 5.0226 -0.0266342 0
              CHANNELS 3 Zrotation Xrotation Yrotation
              JOINT Head
              {
                OFFSET 6.69364 2.86102e-005 0
                CHANNELS 3 Zrotation Xrotation Yrotation
                End Site
                {
                  OFFSET 0 0 0
                }
              }
            }
          }
        }
      }
    }
  }
}
MOTION
Frames:	13
Frame Time:	0.0416667
-24.1509 94.8268 58.2908 104.523 45.1475 79.639 -176.565 -2.78279 86.9213 -27.4839 22.5576 3.19119 65.6017 7.45662 14.9726 44.0962 -1.72134 -0.578395 171.699 18.7822 84.562 -25.0074 2.4337 2.21842 54.9789 7.40526 19.2437 33.5495 -1.17552 -0.144678 -0.564903 7.94107 -89.8189 10.9941 -1.04053 0.459736 -0.676546 -1.01928 0.505086 -23.215 -1.1306 0.125723 -3.20232 -1.13059 0.125715 100.618 -62.47 -84.2583 22.6177 -2.96606 0.269671 -2.23045 -15.8183 -19.0298 -9.40052 -0.744993 4.23417 -81.7844 -52.043 91.0226 -21.0713 5.38538 -32.7975 10.3096 36.7961 -22.1409 3.20437 -0.246473 -7.57056 -12.7078 -0.480413 -2.26218 -34.3428 -0.835054 1.50981 
-18.2404 94.8262 54.6754 104.223 46.7538 78.0464 -176.73 -7.8631 87.0725 -24.7107 25.2094 3.51116 63.9843 7.84292 15.0601 49.2276 -2.16344 1.87211 175.746 17.3641 82.3685 -10.2434 10.8387 -1.23833 55.4904 10.1539 24.0572 27.1435 0.846245 -4.30839 -0.577569 7.8691 -89.7527 11.1384 -1.03471 0.593053 -0.532289 -1.00761 0.638011 -23.0705 -1.16512 0.254626 -3.05782 -1.16513 0.254618 100.457 -62.4072 -84.4763 22.757 -2.62137 -0.0250209 -2.36726 -16.6333 -18.1547 -7.56199 -0.551343 3.5247 -81.8821 -52.4858 90.9089 -19.979 6.42276 -33.0446 11.7986 36.255 -24.9624 3.15507 -0.253283 -7.73953 -13.4052 -0.991107 -1.84564 -33.8232 -1.16257 0.742514 
-11.4197 93.963 50.6205 103.762 48.1994 77.7472 -177.805 -9.02847 87.654 -30.3632 25.6501 5.18794 64.0417 7.08212 11.545 54.8575 -2.34311 4.83875 174.368 18.0143 81.6552 -14.1895 7.12156 0.0400996 51.7406 11.1338 19.4382 31.267 -0.392754 -3.12659 -0.568173 7.71765 -89.8854 11.439 -1.07685 0.337318 -0.231601 -1.06095 0.384379 -22.7702 -1.12845 -0.00195893 -2.75755 -1.12844 -0.00196271 100.731 -62.5304 -84.1045 22.024 -2.26884 -0.376621 -2.21022 -17.2633 -17.163 -7.33127 -0.517116 3.22733 -81.7104 -54.0454 91.2649 -21.2735 5.31561 -29.9247 8.52516 38.6848 -19.6024 3.10346 -0.260091 -7.9023 -13.5117 -1.22372 -1.22016 -34.1305 -1.38274 0.614945 
-4.5888 93.8634 46.7965 103.774 49.0421 79.7678 -177.282 -6.86619 93.8746 -39.6839 20.4531 6.08695 57.6982 0.261233 -1.72782 59.7793 -3.47465 0.109107 174.09 18.7759 84.246 -23.6649 2.00987 1.30445 50.864 11.9851 13.3882 25.571 1.2218 -3.23131 -0.540168 7.58208 -90.3531 11.7098 -1.24 -0.57221 0.0393547 -1.26397 -0.517088 -22.4985 -1.0107 -0.918443 -2.48586 -1.01071 -0.918454 100.848 -61.8807 -83.9601 21.1554 -1.97012 -0.677925 -2.08383 -16.9627 -17.0987 -7.40894 -0.56073 3.89231 -81.6084 -55.8882 91.528 -24.91 0.746396 -24.1564 -0.564039 43.0234 -4.09585 3.98659 -0.229184 -6.9167 -13.6122 -1.47496 -0.909782 -33.6968 -1.74584 0.994715 
1.14123 93.7611 43.9445 104.74 51.7501 80.2628 -179.302 2.80735 94.2859 -56.7672 18.0719 6.04203 50.2191 -2.73828 5.52942 53.1603 -2.76516 -0.43106 172.913 17.9849 86.0482 -32.1124 4.28996 2.80489 58.4307 10.3489 12.2289 23.767 1.5174 -1.92032 -0.698827 7.61466 -90.6606 11.6355 -1.69966 -1.13984 -0.0348203 -1.74816 -1.06394 -22.5716 -1.27856 -1.59795 -2.55892 -1.27853 -1.59794 101.214 -61.2516 -83.4732 19.7146 -2.26824 -2.02723 -2.51799 -15.4479 -19.038 -6.80762 -0.462349 2.94121 -82.4264 -55.7298 90.3544 -29.6992 -4.87283 -19.2601 -0.635348 48.9451 -0.00140796 0.374043 -0.132567 -6.12339 -12.3588 -2.37822 -3.16822 -31.5309 -2.59113 1.15462 
5.95121 94.1337 41.4833 106.138 50.2735 79.5903 -179.61 10.5931 93.5097 -63.6491 13.0295 4.92263 52.2486 -0.744251 6.52027 51.3799 -2.88859 -4.20778 173.213 14.7363 87.6868 -34.8386 4.61559 2.49081 62.392 8.79665 12.2856 24.9956 1.15206 -1.66495 -0.386235 7.90819 -90.6819 11.05 -1.08507 -1.25242 -0.621096 -1.13911 -1.20346 -23.1529 -0.658544 -1.52057 -3.1402 -0.658541 -1.52057 101.006 -61.8457 -83.747 17.3851 -2.84506 -5.008 -1.73427 -12.1803 -21.8988 -11.3452 -0.885241 4.03267 -82.4397 -54.9498 90.2768 -31.4115 -6.82675 -15.8599 0.313163 59.4424 0.00198121 -7.64092 0.0630759 -8.00909 -12.1269 -2.87709 -6.45161 -29.2452 -3.00637 1.4116 
9.88333 94.6629 39.3804 104.88 45.6947 80.2186 -178.335 14.6119 91.132 -54.9069 11.9171 3.46521 55.6957 1.95454 7.51356 55.0618 -2.63864 1.91338 173.647 12.7041 88.1587 -35.6441 2.97321 1.84729 65.04 7.17311 13.5806 24.0005 1.27102 -0.549814 0.0627423 8.05392 -90.6419 10.7635 -0.171115 -1.26056 -0.907983 -0.226407 -1.25182 -23.4384 0.215632 -1.25372 -3.42573 0.21563 -1.25372 100.276 -60.096 -84.7866 17.0155 -3.38372 -8.04399 -2.00628 -10.7396 -24.6063 -12.8261 -0.95822 3.56697 -82.0194 -56.2321 90.9671 -29.7773 -5.29048 -9.9951 -1.79872 52.2699 0.000559234 -8.2338 0.0552938 -7.32232 -11.7854 -2.53295 -5.51681 -28.6499 -2.68145 1.48935 
13.1119 95.3695 37.2781 102.612 41.4698 82.5958 -179.313 14.7954 90.3263 -34.4875 12.5719 3.04766 55.7926 1.9118 5.84421 60.2641 -2.16509 8.484 174.535 10.2669 89.4008 -33.3398 0.765619 1.04305 65.9346 6.33152 14.4042 24.5335 1.1373 -0.592698 0.357303 8.04675 -90.6839 10.7808 0.395962 -1.39671 -0.890831 0.334115 -1.41279 -23.4216 0.79739 -1.21319 -3.40899 0.797391 -1.21319 99.6763 -58.8923 -85.6638 16.6126 -4.31338 -9.89543 -3.19748 -10.4937 -27.7994 -12.1942 -0.836884 2.88648 -81.7216 -56.9745 91.4347 -29.8688 -5.38751 -7.50598 -1.90203 48.6804 -0.0018866 -2.92597 -0.0760041 -6.64026 -11.3778 -1.96177 -4.6774 -27.8202 -2.36599 2.72296 
16.1277 95.967 35.1879 100.799 37.4074 85.3278 175.816 13.243 91.2392 -18.2051 23.5767 4.46758 54.303 0.623144 2.28048 55.5425 -1.92622 8.95716 175.237 7.07574 90.768 -29.7222 -1.47214 0.667956 67.2147 5.35665 15.6868 22.9305 1.60416 -0.970801 0.389007 7.98682 -90.7096 10.901 0.446428 -1.45351 -0.770739 0.382037 -1.47175 -23.3014 0.862594 -1.2522 -3.28872 0.862609 -1.25219 98.5484 -58.2732 -87.281 17.1504 -5.59209 -11.4856 -3.7711 -10.8703 -28.6963 -11.7822 -0.795698 2.75885 -81.3393 -56.4624 91.9426 -30.4168 -5.15997 -8.6446 -1.76188 49.8999 -0.00408677 -5.10718 -0.0171803 -7.44214 -11.1954 -1.07584 -4.34495 -28.285 -1.73071 3.83226 
19.1322 95.998 32.8545 98.9045 28.7382 87.9932 172.422 10.6706 93.5327 -10.5055 37.8236 5.95741 52.6953 -1.91043 -7.69776 52.426 -1.93107 7.92848 175.969 5.68944 90.9731 -28.8967 -6.99452 0.0378539 68.7216 4.69149 17.9021 21.3588 1.91335 -0.350641 0.615995 7.95405 -90.6054 10.9697 0.946224 -1.29442 -0.701633 0.888347 -1.33481 -23.2364 1.29149 -0.950222 -3.22371 1.29148 -0.95023 97.8655 -58.1475 -88.2535 17.6341 -8.25968 -13.0016 -2.70054 -10.3251 -27.3048 -12.455 -0.781023 2.17549 -81.1344 -57.1266 92.2667 -28.2678 -4.00974 -10.6202 -1.97468 48.603 -0.454296 -4.79338 -0.0292315 -6.82144 -12.0261 -0.86219 -3.28437 -26.7629 -1.39211 3.12975 
22.355 95.7011 30.2965 97.0009 17.8596 91.8251 173.391 10.4621 95.9386 -15.6781 40.8524 7.96386 53.2844 -1.59026 -4.42342 46.8807 -1.79952 2.34224 177.214 5.33973 91.7836 -28.8605 -13.1328 -0.825204 70.2231 3.99601 20.8461 19.7741 2.18416 0.425429 0.757589 7.86426 -90.592 11.1506 1.23298 -1.29789 -0.520482 1.17466 -1.3509 -23.0577 1.56602 -0.867317 -3.04502 1.56601 -0.867321 97.4193 -58.3243 -88.8693 17.7586 -10.3641 -12.9858 -3.68496 -12.3761 -26.7495 -9.02503 -0.585108 2.48678 -81.0934 -57.2804 92.3321 -25.9956 -2.28275 -10.6616 -0.981371 43.3967 -3.18573 1.28803 -0.149716 -5.7839 -11.4158 -1.23706 -2.51086 -24.7632 -1.27355 0.735352 
24.9119 95.806 27.9209 95.4023 10.4642 91.6949 174.779 10.3003 94.1189 -19.3053 37.1714 9.19488 55.0072 0.162598 4.27185 42.8294 -1.59022 -1.12309 179.333 5.862 91.4334 -29.5065 -14.9795 -3.69255 70.3324 3.61915 22.3317 23.1104 1.21819 1.44376 0.325459 7.72257 -90.2377 11.4312 0.536862 -0.528917 -0.239767 0.513078 -0.552047 -22.7754 0.671013 -0.343117 -2.7627 0.671014 -0.343121 97.9452 -59.759 -88.0314 19.5108 -8.34145 -10.7545 -3.18149 -12.81 -25.2884 -11.4885 -0.74717 2.48881 -81.7364 -55.6171 91.3291 -24.1636 -3.30497 -13.4226 -2.34913 45.0163 -0.76581 0.435023 -0.143868 -6.61563 -11.3443 -3.91761 -2.95883 -22.3919 -3.26579 -3.46311 
25.9519 95.707 25.745 93.6605 1.30327 92.6847 178.988 12.2559 93.5391 -22.7114 32.2711 8.17173 58.3641 0.876204 5.6681 41.0932 -1.36346 -1.57144 -178.466 10.0558 90.2366 -32.956 -15.1671 -5.13087 68.26 4.79596 27.0909 23.8587 1.16187 0.497011 0.0557612 7.66296 -89.9787 11.5479 0.120953 0.0300866 -0.123015 0.122153 0.0247287 -22.6582 0.106301 0.0650428 -2.64556 0.106319 0.065045 99.173 -60.102 -86.3117 20.828 -7.00224 -9.31776 -0.453827 -10.3476 -22.5424 -14.986 -1.14802 3.78323 -82.3553 -53.6886 90.3032 -21.187 -4.47403 -17.2939 -2.6373 46.4527 -0.00575335 -1.82415 -0.105868 -7.57412 -9.71052 -7.69521 -0.144393 -19.8772 -6.1206 -11.648 
